<svg width="19" height="21" viewBox="0 0 19 21" fill="none" xmlns="http://www.w3.org/2000/svg">
<path d="M3.3454 16.1591L1.93174 17.5739C3.79412 19.4348 6.314 20.5 9 20.5C14.5228 20.5 19 16.0228 19 10.5C19 4.97715 14.5228 0.5 9 0.5C6.31327 0.5 3.79277 1.56579 1.93027 3.42759L3.34422 4.84207C4.83539 3.35147 6.84902 2.5 9 2.5C13.4183 2.5 17 6.08172 17 10.5C17 14.9183 13.4183 18.5 9 18.5C6.8496 18.5 4.83647 17.649 3.3454 16.1591Z" fill="#F4F7E7"/>
<path d="M8.29289 7.20711L9.70711 5.79289L13.7071 9.79289C14.0976 10.1834 14.0976 10.8166 13.7071 11.2071L9.70711 15.2071L8.29289 13.7929L10.5858 11.5H0V9.5H10.5858L8.29289 7.20711Z" fill="#F4F7E7"/>
</svg>
